<svg xmlns="http://www.w3.org/2000/svg" viewBox="2353 356 36.82 22.877"><defs><style>.a{fill:#dd4b39;fill-rule:evenodd;}</style></defs><g transform="translate(1314 -341)"><path class="a" d="M17.03,34.866a11.405,11.405,0,0,1,11.4-10.857,11.573,11.573,0,0,1,7.632,2.824,40.624,40.624,0,0,1-2.9,3c-2.6-1.8-6.29-2.31-8.887-.235a7.327,7.327,0,0,0-.311,11.414c3.475,3.157,10.044,1.589,11-3.244-2.177-.033-4.359,0-6.536-.071-.005-1.3-.011-2.6-.005-3.9,3.639-.011,7.278-.016,10.922.011.218,3.058-.186,6.313-2.062,8.842-2.842,4-8.549,5.172-13,3.457A11.447,11.447,0,0,1,17.03,34.866" transform="translate(1022 673)"/><path class="a" d="M47.29,31h3.246c.005,1.087.011,2.179.022,3.266,1.086.011,2.177.011,3.262.022v3.249c-1.086.011-2.171.016-3.262.027q-.016,1.639-.022,3.266H47.284c-.011-1.087-.011-2.173-.022-3.26L44,37.537V34.288q1.628-.016,3.262-.022c.005-1.092.016-2.179.027-3.266" transform="translate(1022 673)"/></g></svg>