<svg xmlns="http://www.w3.org/2000/svg" viewBox="2255 352 31.639 30"><defs><style>.a{fill:#0077b5;fill-rule:evenodd;}</style></defs><g transform="translate(1514 -336)"><path class="a" d="M20.9,25.118a3.739,3.739,0,0,0,3.9-3.557A3.741,3.741,0,0,0,20.9,18,3.741,3.741,0,0,0,17,21.561a3.739,3.739,0,0,0,3.9,3.557" transform="translate(724 670)"/><path class="a" d="M18,49.172h6.994V29H18Z" transform="translate(723.893 668.828)"/><path class="a" d="M35.983,37.846c0-2.313,1.094-4.575,3.711-4.575s3.26,2.262,3.26,4.52V48.808h6.963V37.34c0-7.967-4.709-9.34-7.606-9.34s-4.491.979-6.329,3.352V28.636H29V48.808h6.983Z" transform="translate(722.721 668.935)"/></g></svg>