<svg xmlns="http://www.w3.org/2000/svg" viewBox="2154 353 34 27.625"><defs><style>.a{fill:#1da1f2;fill-rule:evenodd;}</style></defs><path class="a" d="M51.032,21.613a11.339,11.339,0,0,1-4.375,1.552v0a7.013,7.013,0,0,0-11.906,6.411h0A19.426,19.426,0,0,1,20.29,22.3a7.018,7.018,0,0,0,2.127,9.268,4.509,4.509,0,0,1-3.063-.794,6.76,6.76,0,0,0,5.411,6.856,5.554,5.554,0,0,1-2.921.222c.223,2.063,3.111,4.759,6.27,4.759-1.126,1.3-5.361,3.664-10.115,2.913a21.075,21.075,0,0,0,10.973,3.1A19.487,19.487,0,0,0,48.6,28.14c0-.012,0-.025,0-.039,0-.029,0-.058,0-.088s0-.068,0-.1A12.1,12.1,0,0,0,52,24.319a12.292,12.292,0,0,1-3.89,1.1,7.452,7.452,0,0,0,2.922-3.81" transform="translate(2136 332)"/></svg>